<svg xmlns="http://www.w3.org/2000/svg" version="1.1" xmlns:xlink="http://www.w3.org/1999/xlink" xmlns:svgjs="http://svgjs.dev/svgjs" width="1000" height="750" viewBox="0 0 1000 750"><rect width="1000" height="750" fill="#ffffff"></rect><g transform="matrix(0.834,0,0,0.834,82.49454545454546,301.79933948700324)"><svg viewBox="0 0 396 70" data-background-color="#ffffff" preserveAspectRatio="xMidYMid meet" height="176" width="1000" xmlns="http://www.w3.org/2000/svg" xmlns:xlink="http://www.w3.org/1999/xlink"><g id="tight-bounds" transform="matrix(1,0,0,1,0.2400000000000091,-0.09124812030074736)"><svg viewBox="0 0 395.52 70.18249624060151" height="70.18249624060151" width="395.52"><g><svg viewBox="0 0 395.52 70.18249624060151" height="70.18249624060151" width="395.52"><g><svg viewBox="0 0 395.52 70.18249624060151" height="70.18249624060151" width="395.52"><g id="textblocktransform"><svg viewBox="0 0 395.52 70.18249624060151" height="70.18249624060151" width="395.52" id="textblock"><g><svg viewBox="0 0 395.52 70.18249624060151" height="70.18249624060151" width="395.52"><g><svg viewBox="0 0 395.52 70.18249624060151" height="70.18249624060151" width="395.52"><g transform="matrix(1,0,0,1,0,0)"><svg width="395.52" viewBox="3.75 -40.45 232.73 41.300000000000004" height="70.18249624060151" data-palette-color="#233565"><path d="M23.75-27.35Q26.15-27.35 28.15-26.55L28.15-26.55 26.7-15.45 21.7-15.45 21.7-20.35Q19.5-19.95 17.8-17.95 16.1-15.95 15.15-12.9L15.15-12.9 15.15-5.3 20.4-5.3 20.4 0 3.75 0 3.75-5.3 7.25-5.3 7.25-21.3 3.75-21.3 3.75-26.55 13.3-26.55 14.7-20.6Q16.15-24 18.35-25.68 20.55-27.35 23.75-27.35L23.75-27.35ZM55.85-7.65Q55.85-6.2 56.25-5.5 56.65-4.8 57.6-4.45L57.6-4.45 55.95 0.75Q53.55 0.5 51.95-0.33 50.35-1.15 49.45-2.75L49.45-2.75Q47.95-1 45.65-0.08 43.35 0.85 40.75 0.85L40.75 0.85Q36.65 0.85 34.2-1.48 31.75-3.8 31.75-7.5L31.75-7.5Q31.75-11.8 35.15-14.18 38.55-16.55 44.7-16.55L44.7-16.55 48.25-16.55 48.25-17.5Q48.25-21.6 43-21.6L43-21.6Q41.65-21.6 39.62-21.23 37.6-20.85 35.7-20.2L35.7-20.2 33.9-25.45Q36.45-26.4 39.22-26.93 42-27.45 44.25-27.45L44.25-27.45Q55.85-27.45 55.85-18.05L55.85-18.05 55.85-7.65ZM43.45-4.8Q44.8-4.8 46.17-5.58 47.55-6.35 48.25-7.7L48.25-7.7 48.25-12.05 46.3-12.05Q39.9-12.05 39.9-8.05L39.9-8.05Q39.9-6.5 40.82-5.65 41.75-4.8 43.45-4.8L43.45-4.8ZM85.84-7.65Q85.84-6.2 86.25-5.5 86.65-4.8 87.59-4.45L87.59-4.45 85.95 0.75Q83.55 0.5 81.95-0.33 80.34-1.15 79.45-2.75L79.45-2.75Q77.95-1 75.65-0.08 73.34 0.85 70.75 0.85L70.75 0.85Q66.65 0.85 64.2-1.48 61.75-3.8 61.75-7.5L61.75-7.5Q61.75-11.8 65.15-14.18 68.55-16.55 74.7-16.55L74.7-16.55 78.25-16.55 78.25-17.5Q78.25-21.6 73-21.6L73-21.6Q71.65-21.6 69.62-21.23 67.59-20.85 65.7-20.2L65.7-20.2 63.9-25.45Q66.45-26.4 69.22-26.93 72-27.45 74.25-27.45L74.25-27.45Q85.84-27.45 85.84-18.05L85.84-18.05 85.84-7.65ZM73.45-4.8Q74.8-4.8 76.17-5.58 77.55-6.35 78.25-7.7L78.25-7.7 78.25-12.05 76.3-12.05Q69.9-12.05 69.9-8.05L69.9-8.05Q69.9-6.5 70.82-5.65 71.75-4.8 73.45-4.8L73.45-4.8ZM108.59-37.95L116.49-37.1 116.49 0 109.49 0 109.09-2.9Q107.89-1.2 106.04-0.18 104.19 0.85 101.74 0.85L101.74 0.85Q96.94 0.85 94.47-2.95 91.99-6.75 91.99-13.35L91.99-13.35Q91.99-17.45 93.29-20.65 94.59-23.85 96.99-25.65 99.39-27.45 102.59-27.45L102.59-27.45Q106.19-27.45 108.59-24.95L108.59-24.95 108.59-37.95ZM104.69-21.65Q102.54-21.65 101.34-19.63 100.14-17.6 100.14-13.3L100.14-13.3Q100.14-8.7 101.22-6.83 102.29-4.95 104.24-4.95L104.24-4.95Q106.74-4.95 108.59-8L108.59-8 108.59-19.45Q107.74-20.55 106.82-21.1 105.89-21.65 104.69-21.65L104.69-21.65ZM146.04 0L137.34 0 135.04-17.85 132.64 0 124.09 0 120.14-26.55 127.39-26.55 129.14-4.95 131.89-23.2 138.59-23.2 141.04-4.95 142.84-26.55 149.84-26.55 146.04 0ZM164.94-40.45Q166.99-40.45 168.29-39.18 169.59-37.9 169.59-36L169.59-36Q169.59-34.05 168.29-32.8 166.99-31.55 164.94-31.55L164.94-31.55Q162.89-31.55 161.56-32.83 160.24-34.1 160.24-36L160.24-36Q160.24-37.9 161.56-39.18 162.89-40.45 164.94-40.45L164.94-40.45ZM169.69-26.55L169.69-5.4 176.49-5.4 176.49 0 154.29 0 154.29-5.4 161.79-5.4 161.79-21.15 154.54-21.15 154.54-26.55 169.69-26.55ZM191.39-37.95L191.39 0 183.49 0 183.49-37.1 191.39-37.95ZM208.69-26.55L199.94-14.8 209.39 0 200.39 0 191.69-14.55 200.44-26.55 208.69-26.55ZM224.93-40.45Q226.98-40.45 228.28-39.18 229.58-37.9 229.58-36L229.58-36Q229.58-34.05 228.28-32.8 226.98-31.55 224.93-31.55L224.93-31.55Q222.88-31.55 221.56-32.83 220.23-34.1 220.23-36L220.23-36Q220.23-37.9 221.56-39.18 222.88-40.45 224.93-40.45L224.93-40.45ZM229.68-26.55L229.68-5.4 236.48-5.4 236.48 0 214.28 0 214.28-5.4 221.78-5.4 221.78-21.15 214.53-21.15 214.53-26.55 229.68-26.55Z" opacity="1" transform="matrix(1,0,0,1,0,0)" fill="#233565" class="wordmark-text-0" data-fill-palette-color="primary" id="text-0"></path></svg></g></svg></g></svg></g></svg></g></svg></g><g></g></svg></g><defs></defs></svg><rect width="395.52" height="70.18249624060151" fill="none" stroke="none" visibility="hidden"></rect></g></svg></g></svg>